<mxfile host="app.diagrams.net" modified="2023-10-07T23:37:24.622Z" agent="Mozilla/5.0 (Macintosh; Intel Mac OS X 10_15_7) AppleWebKit/537.36 (KHTML, like Gecko) Chrome/117.0.0.0 Safari/537.36" etag="dMwVMawQ4qix-C6To7KG" version="22.0.4" type="device">
  <diagram name="Page-1" id="ZdXn2VTpGKBQTrUOrqVS">
    <mxGraphModel dx="1558" dy="924" grid="1" gridSize="10" guides="1" tooltips="1" connect="1" arrows="1" fold="1" page="1" pageScale="1" pageWidth="850" pageHeight="1100" math="0" shadow="0">
      <root>
        <mxCell id="0" />
        <mxCell id="1" parent="0" />
        <mxCell id="y6F0W59Wb2HbK9nUB39n-1" value="" style="ellipse;whiteSpace=wrap;html=1;aspect=fixed;fillColor=#d5e8d4;strokeColor=#82b366;" parent="1" vertex="1">
          <mxGeometry x="275" y="160" width="140" height="140" as="geometry" />
        </mxCell>
        <mxCell id="y6F0W59Wb2HbK9nUB39n-22" value="dL" style="ellipse;shape=cloud;whiteSpace=wrap;html=1;fillColor=#e1d5e7;strokeColor=#9673a6;" parent="1" vertex="1">
          <mxGeometry x="310" y="190" width="50" height="40" as="geometry" />
        </mxCell>
        <mxCell id="y6F0W59Wb2HbK9nUB39n-29" value="diX" style="ellipse;whiteSpace=wrap;html=1;aspect=fixed;dashed=1;fillColor=#dae8fc;strokeColor=#6c8ebf;" parent="1" vertex="1">
          <mxGeometry x="440" y="165" width="45" height="45" as="geometry" />
        </mxCell>
        <mxCell id="y6F0W59Wb2HbK9nUB39n-34" value="" style="endArrow=classicThin;dashed=1;html=1;rounded=0;exitX=0.875;exitY=0.5;exitDx=0;exitDy=0;exitPerimeter=0;entryX=0;entryY=0.5;entryDx=0;entryDy=0;endFill=1;" parent="1" source="y6F0W59Wb2HbK9nUB39n-22" target="y6F0W59Wb2HbK9nUB39n-29" edge="1">
          <mxGeometry width="50" height="50" relative="1" as="geometry">
            <mxPoint x="490" y="470" as="sourcePoint" />
            <mxPoint x="540" y="420" as="targetPoint" />
          </mxGeometry>
        </mxCell>
        <mxCell id="y6F0W59Wb2HbK9nUB39n-41" value="&lt;font style=&quot;font-size: 14px;&quot;&gt;Liquidity Pool&lt;/font&gt;" style="text;html=1;strokeColor=none;fillColor=none;align=center;verticalAlign=middle;whiteSpace=wrap;rounded=0;" parent="1" vertex="1">
          <mxGeometry x="275" y="240" width="132.5" height="40" as="geometry" />
        </mxCell>
      </root>
    </mxGraphModel>
  </diagram>
</mxfile>
